TITLE: input2
FCM: NON-DROP FRAME

001  AX       V     C        00:00:28:11 00:00:28:22 00:00:00:00 00:00:00:11 
* FROM CLIP NAME: MissionImpossibleDeadReckoning_239_16x9_1920x1080_2398p_DME_6CH_TXTSS_ProResHQ_176Mb_85000650_TRL_SF00012787_MGMPHD19540TRSPLT.MOV

002  AX       V     C        00:01:57:20 00:01:58:04 00:00:00:11 00:00:00:19 
* FROM CLIP NAME: mgm_creediii_trailer_1920x1080_23976_14ch_eng_mande_240_Textless.mov

003  AX       V     C        01:01:49:03 01:01:49:12 00:00:00:19 00:00:01:04 
* FROM CLIP NAME: Babylon_240_16x9_1920x1080_2398_DME_6CH_ProResHQ_84862611_TRL_SF00011501_MGMPHD27173TRSPLT.mov

004  AX       V     C        01:00:35:21 01:00:36:04 00:00:01:04 00:00:01:11 
* FROM CLIP NAME: FrenchGirl_200_16x9_1920x1080_2398p_DME_6CH_TXTSS_PRORESHQ_176Mb_5005164291_TRL_SF00012828_MGMPHD29191TRSPLT.mov

005  BL       V     C        00:00:00:00 00:00:01:16 00:00:01:11 00:00:03:03 

006  AX       V     C        00:00:51:06 00:00:52:01 00:00:03:03 00:00:03:22 
* FROM CLIP NAME: MissionImpossibleDeadReckoning_239_16x9_1920x1080_2398p_DME_6CH_TXTSS_ProResHQ_176Mb_85000650_TRL_SF00012787_MGMPHD19540TRSPLT.MOV

007  AX       V     C        00:00:57:01 00:00:57:15 00:00:03:22 00:00:04:12 
* FROM CLIP NAME: MissionImpossibleDeadReckoning_239_16x9_1920x1080_2398p_DME_6CH_TXTSS_ProResHQ_176Mb_85000650_TRL_SF00012787_MGMPHD19540TRSPLT.MOV

008  AX       V     C        00:00:59:07 00:00:59:18 00:00:04:12 00:00:04:23 
* FROM CLIP NAME: MissionImpossibleDeadReckoning_239_16x9_1920x1080_2398p_DME_6CH_TXTSS_ProResHQ_176Mb_85000650_TRL_SF00012787_MGMPHD19540TRSPLT.MOV

009  AX       V     C        00:01:27:23 00:01:28:14 00:00:04:23 00:00:05:14 
* FROM CLIP NAME: MissionImpossibleDeadReckoning_239_16x9_1920x1080_2398p_DME_6CH_TXTSS_ProResHQ_176Mb_85000650_TRL_SF00012787_MGMPHD19540TRSPLT.MOV

010  AX       V     C        00:01:48:06 00:01:48:22 00:00:05:14 00:00:06:06 
* FROM CLIP NAME: MissionImpossibleDeadReckoning_239_16x9_1920x1080_2398p_DME_6CH_TXTSS_ProResHQ_176Mb_85000650_TRL_SF00012787_MGMPHD19540TRSPLT.MOV

011  AX       V     C        00:01:52:03 00:01:52:18 00:00:06:06 00:00:06:21 
* FROM CLIP NAME: MissionImpossibleDeadReckoning_239_16x9_1920x1080_2398p_DME_6CH_TXTSS_ProResHQ_176Mb_85000650_TRL_SF00012787_MGMPHD19540TRSPLT.MOV

012  AX       V     C        01:00:49:11 01:00:49:23 00:00:06:21 00:00:07:09 
* FROM CLIP NAME: BobMarleyOneLove_239_16x9_1920x1080_2398p_DME_6CH_TXTSS_PRORESHQ_176Mb_5005150710_TRL_SF00012827_MGMPHD29181TRSPLT.mov

013  AX       V     C        01:00:34:00 01:00:34:11 00:00:07:09 00:00:07:20 
* FROM CLIP NAME: BobMarleyOneLove_239_16x9_1920x1080_2398p_DME_6CH_TXTSS_PRORESHQ_176Mb_5005150710_TRL_SF00012827_MGMPHD29181TRSPLT.mov

014  AX       V     C        01:00:34:11 01:00:35:00 00:00:07:20 00:00:08:09 
* FROM CLIP NAME: BobMarleyOneLove_239_16x9_1920x1080_2398p_DME_6CH_TXTSS_PRORESHQ_176Mb_5005150710_TRL_SF00012827_MGMPHD29181TRSPLT.mov

015  AX       V     C        01:00:50:21 01:00:51:16 00:00:08:09 00:00:09:04 
* FROM CLIP NAME: BobMarleyOneLove_239_16x9_1920x1080_2398p_DME_6CH_TXTSS_PRORESHQ_176Mb_5005150710_TRL_SF00012827_MGMPHD29181TRSPLT.mov

016  AX       V     C        01:01:58:14 01:01:58:22 00:00:09:04 00:00:09:12 
* FROM CLIP NAME: BobMarleyOneLove_239_16x9_1920x1080_2398p_DME_6CH_TXTSS_PRORESHQ_176Mb_5005150710_TRL_SF00012827_MGMPHD29181TRSPLT.mov

017  AX       V     C        01:00:32:20 01:00:33:04 00:00:09:12 00:00:09:20 
* FROM CLIP NAME: BobMarleyOneLove_239_16x9_1920x1080_2398p_DME_6CH_TXTSS_PRORESHQ_176Mb_5005150710_TRL_SF00012827_MGMPHD29181TRSPLT.mov

018  AX       V     C        00:00:43:08 00:00:43:15 00:00:09:20 00:00:10:03 
* FROM CLIP NAME: MissionImpossibleDeadReckoning_239_16x9_1920x1080_2398p_DME_6CH_TXTSS_ProResHQ_176Mb_85000650_TRL_SF00012787_MGMPHD19540TRSPLT.MOV

019  time     V     C        01:02:02:20 01:02:03:03 00:00:10:03 00:00:10:10 
* FROM CLIP NAME: LADB_BONES_AND_ALL_THEATRICAL_DME_TRAILER_1_85_1920x1080_23976fps_ENGLISH_2_0_LTRT_DA137673_11654731_SF00011441_MGMPHD26768TRSPLT.mov

020  AX       V     C        01:02:12:07 01:02:12:15 00:00:10:10 00:00:10:18 
* FROM CLIP NAME: Babylon_240_16x9_1920x1080_2398_DME_6CH_ProResHQ_84862611_TRL_SF00011501_MGMPHD27173TRSPLT.mov

021  time     V     C        01:01:58:07 01:01:58:14 00:00:10:18 00:00:11:01 
* FROM CLIP NAME: LADB_TILL_Textless_TRAILER_2_40_1920x1080_23976fps_20_DIA_20_MX_20_FX_6ch__DA137524_11626185_SF00011439_MGMPHD26719A1.mov

022  AX       V     C        00:00:51:18 00:00:52:02 00:00:11:01 00:00:11:09 
* FROM CLIP NAME: Marlowe_TRLR_2398_1080p_Pro422HQ_Ch1-2-DX_Ch3-4-SFX_Ch5-6-MX_Ch7-8-StereoMix_MGMPHD26718TRSPLT.mov

023  AX       V     C        01:00:31:05 01:00:31:12 00:00:11:09 00:00:11:16 
* FROM CLIP NAME: DungeonsDragonsHonorAmongThieves_239_16x9_1920x1080_2398p_NDME_8CH_ProResHQ_176Mb_84924148_TRL_MGMPHD27329TRSPLT.mov

024  AX       V     C        00:01:58:17 00:01:59:01 00:00:11:16 00:00:12:00 
* FROM CLIP NAME: mgm_goodperson_trailer_1920x1080_23976_14ch_eng_mande_239_Textless_SF00012085_MGMPHD28286TRSPLT.mov

025  time     V     C        01:02:05:14 01:02:05:22 00:00:12:00 00:00:12:08 
* FROM CLIP NAME: LADB_BEEKEEPER_THE_THEATRICAL_TRAILER_2_39_1920x1080_23976fps_ENGLISH_2_0_LTRT_DA144871_12398969_SF00012749_MGMPHD239030ATRSPLT.mov

026  AX       V     C        00:02:02:03 00:02:02:12 00:00:12:08 00:00:12:17 
* FROM CLIP NAME: TeenageMutantNinjaTurtlesMutantMayhem_240_16x9_1920x1080_2398p_DME_6CH_TXTSS_ProResHQ_176Mb_84999611_TRL_MGMPHD24629TRSPLT.MOV

027  time     V     C        01:01:41:16 01:01:42:16 00:00:12:17 00:00:13:17 
* FROM CLIP NAME: LADB_AMERICAN_FICTION_THEATRICAL_TRAILER_2_35_1920x1080_23976fps_ENGLISH_5_1_2_0_LTRT_DA144668_12372193.mov
